<svg width="934" height="241" viewBox="0 0 934 241" fill="none" xmlns="http://www.w3.org/2000/svg">
<path d="M1 122C11.1612 89.2663 53.0721 20.0105 139.426 4.85662C247.368 -14.0857 346.315 41.2458 478.244 73.1487C610.173 105.052 899.518 0.370279 933 9.34296" stroke="#745CFF"/>
<path d="M1 240C105.592 132.633 179.249 101.671 234.246 123.644C289.242 145.617 437.046 216.529 546.058 212.035C655.07 207.54 654.087 182.571 744.93 180.074C817.605 178.077 900.591 200.549 933 212.035" stroke="#FD8CFF"/>
<path d="M1 123.239C10.8193 102.538 26.7248 76.7807 50.8124 55.6367C74.8999 34.4926 112.477 17.7718 158.789 10.3417C266.782 -7.91265 360.971 43.5951 490.943 73.8599C620.051 104.148 899.569 5.52205 933 14.6144" stroke="#937CFF"/>
<path d="M1 124.483C15.5579 99.4495 34.351 73.4317 59.984 54.4435C85.617 35.4553 128.706 23.1162 178.153 15.8328C286.197 -1.73354 375.626 45.9503 503.643 74.577C629.929 103.251 899.62 10.6799 933 19.8919" stroke="#997DFF"/>
<path d="M1 125.735C20.2966 96.3681 41.9772 70.0901 69.1557 53.2577C96.3341 36.4253 144.934 28.4678 197.516 21.3313C305.611 4.45291 390.282 48.3129 516.342 75.3016C639.806 102.362 899.671 15.845 933 25.1767" stroke="#9E7DFF"/>
<path d="M1 126.996C25.0352 93.2957 49.6034 66.7576 78.3273 52.081C107.051 37.4045 161.163 33.8287 216.879 26.8389C325.025 10.6485 404.938 50.6847 529.041 76.0353C649.684 101.481 899.722 21.0193 933 30.4707" stroke="#A37EFF"/>
<path d="M1 128.269C29.7738 90.235 57.2296 63.4366 87.499 50.9159C117.768 38.3952 177.391 39.201 236.243 32.358C344.44 16.8556 419.594 53.068 541.741 76.7804C659.562 100.612 899.773 26.2051 933 35.7762" stroke="#A87FFF"/>
<path d="M1 129.556C34.5125 87.189 64.8558 60.1304 96.6706 49.7655C128.486 39.4007 193.62 44.5882 255.606 37.8919C363.854 23.0776 434.25 55.4661 554.44 77.5405C669.439 99.7575 899.825 31.4058 933 41.0965" stroke="#AE80FF"/>
<path d="M1 130.863C39.2511 84.1625 72.482 56.8437 105.842 48.6347C139.203 40.4257 209.848 49.9948 274.97 43.4454C383.268 29.319 448.906 57.8837 567.139 78.32C679.317 98.9227 899.876 36.6259 933 46.4363" stroke="#B381FF"/>
<path d="M1 132.196C43.9898 81.1623 80.1082 53.5833 115.014 47.5301C149.92 41.477 226.077 55.4277 294.333 49.0251C402.683 35.5867 463.561 60.3275 579.839 79.1257C689.195 98.1142 899.927 41.8723 933 51.8024" stroke="#B882FF"/>
<path d="M1 138.367C48.7284 83.0002 87.7344 55.161 124.186 51.2637C160.637 47.3664 242.305 65.6988 313.697 59.4429C422.097 46.6925 478.217 67.6095 592.538 84.7696C699.072 102.144 899.978 51.9568 933 62.0065" stroke="#BD82FF"/>
<path d="M1 145.875C53.4671 86.1746 95.3606 58.0751 133.357 56.3337C171.354 54.5922 258.533 77.3063 333.06 71.1972C441.511 59.1348 492.873 76.228 605.238 91.75C708.95 107.51 900.029 63.3778 933 73.5472" stroke="#C383FF"/>
<path d="M1 153.745C58.2057 89.7116 102.987 61.352 142.529 61.7664C182.071 62.1807 274.762 89.2765 352.424 83.3142C460.926 71.9398 507.529 85.2091 617.937 99.093C718.828 113.239 900.08 75.1615 933 85.4505" stroke="#C884FF"/>
<path d="M1 161.861C62.9444 93.4936 110.613 64.8738 151.701 67.444C192.788 70.0142 290.99 101.492 371.787 95.6761C480.34 84.9897 522.185 94.4351 630.636 106.681C728.706 119.212 900.131 87.19 933 97.5988" stroke="#CD85FF"/>
<path d="M1 170.159C67.683 97.4585 118.239 68.5784 160.872 73.3045C203.505 78.0306 307.219 113.89 391.15 108.221C499.755 98.2225 536.841 103.844 643.336 114.452C738.583 125.369 900.182 99.4015 933 109.93" stroke="#D386FF"/>
<path d="M1 178.601C72.4217 101.568 125.865 72.4274 170.044 79.3093C214.222 86.1912 323.447 126.432 410.514 120.91C519.169 111.6 551.497 113.397 656.035 122.367C748.461 131.67 900.233 111.757 933 122.405" stroke="#D887FF"/>
<path d="M1 187.159C77.1603 105.792 133.492 76.3918 179.216 85.4296C224.94 94.4673 339.676 139.09 429.877 133.714C538.583 125.092 566.152 123.066 668.734 130.398C758.339 138.086 900.285 124.229 933 134.996" stroke="#DD87FF"/>
<path d="M1 195.811C81.899 110.111 141.118 80.4499 188.387 91.6435C235.657 102.837 355.904 151.841 449.241 146.613C557.998 138.678 580.808 132.828 681.434 138.522C768.216 144.596 900.336 136.793 933 147.681" stroke="#E288FF"/>
<path d="M1 204.54C86.6376 114.506 148.744 84.585 197.559 97.9344C246.374 111.284 372.133 164.669 468.604 159.588C577.412 152.341 595.464 142.668 694.133 146.723C778.094 151.183 900.387 149.435 933 160.442" stroke="#E889FF"/>
<path d="M1 213.332C91.3763 118.965 156.37 88.784 206.731 104.289C257.091 119.795 388.361 177.562 487.968 172.627C596.826 166.069 610.12 152.571 706.832 154.988C787.972 157.834 900.438 162.141 933 173.268" stroke="#ED8AFF"/>
<path d="M1 222.178C96.1149 123.478 163.996 93.0365 215.902 110.698C267.808 128.359 404.589 190.508 507.331 185.72C616.241 179.849 624.776 162.528 719.532 163.307C797.849 164.538 900.489 174.901 933 186.147" stroke="#F28BFF"/>
<path d="M1 231.07C100.854 128.036 171.622 97.3345 225.074 117.151C278.525 136.968 420.818 203.499 526.695 198.858C635.655 193.675 639.432 172.53 732.231 171.671C807.727 171.288 900.54 187.705 933 199.071" stroke="#F78BFF"/>
</svg>
