<?xml version="1.0" standalone="no"?>
<!DOCTYPE svg PUBLIC "-//W3C//DTD SVG 20010904//EN"
 "http://www.w3.org/TR/2001/REC-SVG-20010904/DTD/svg10.dtd">
<svg version="1.0" xmlns="http://www.w3.org/2000/svg"
 width="870.000000pt" height="870.000000pt" viewBox="0 0 870.000000 870.000000"
 preserveAspectRatio="xMidYMid meet">
<metadata>
Created by potrace 1.14, written by Peter Selinger 2001-2017
</metadata>
<g transform="translate(0.000000,870.000000) scale(0.100000,-0.100000)"
fill="#000000" stroke="none">
<path d="M6217 7094 c-1 -1 -43 -5 -92 -8 -50 -4 -99 -8 -110 -10 -11 -2 -45
-7 -75 -11 -65 -9 -86 -12 -108 -19 -9 -3 -33 -8 -52 -11 -97 -16 -314 -81
-410 -122 -8 -3 -20 -7 -26 -8 -28 -6 -272 -129 -351 -176 -84 -51 -242 -156
-253 -169 -3 -3 -25 -21 -50 -40 -64 -48 -108 -88 -245 -216 -160 -151 -177
-166 -270 -239 -227 -178 -494 -320 -775 -412 -83 -27 -293 -79 -355 -87 -22
-3 -51 -8 -65 -10 -172 -34 -569 -39 -805 -11 -54 6 -123 16 -143 20 -10 1
-39 6 -67 10 -27 4 -59 9 -70 10 -11 2 -42 9 -70 15 -27 6 -61 14 -75 16 -133
24 -481 133 -686 214 -75 30 -98 40 -224 97 -30 14 -56 25 -57 24 -3 -1 -78
39 -232 121 -41 22 -104 58 -139 79 -35 21 -66 39 -68 39 -2 0 -37 23 -77 50
-41 28 -79 50 -85 50 -6 0 -20 -16 -32 -35 -12 -20 -28 -42 -36 -50 -12 -12
-11 -17 8 -35 39 -36 259 -168 430 -258 18 -9 36 -21 39 -25 3 -5 8 -8 10 -7
2 1 51 -21 109 -48 58 -27 134 -61 170 -76 36 -15 73 -32 82 -37 10 -5 35 -15
55 -23 174 -63 300 -108 313 -111 8 -2 47 -13 85 -25 67 -20 163 -48 195 -55
39 -10 207 -47 225 -50 119 -22 217 -38 250 -40 22 -2 54 -6 70 -9 148 -26
579 -26 765 -1 86 12 164 24 195 30 367 73 682 202 980 400 166 111 264 191
449 370 135 130 371 320 433 348 13 6 23 14 23 19 0 4 4 8 9 8 4 0 48 23 97
51 173 100 388 188 569 235 17 4 35 8 40 10 61 15 147 34 175 38 19 2 46 7 60
10 14 4 48 9 75 11 28 3 82 8 120 12 134 13 415 7 570 -11 119 -15 142 -18
269 -41 15 -3 58 -13 95 -21 36 -9 77 -18 91 -21 31 -5 89 -23 260 -77 362
-116 726 -292 1039 -503 68 -45 128 -83 132 -83 4 0 17 16 29 35 12 20 29 42
37 50 8 8 12 19 9 24 -9 13 -195 138 -312 208 -157 95 -536 283 -570 283 -8 0
-14 4 -14 8 0 5 -6 9 -12 9 -7 1 -56 18 -108 38 -134 51 -318 112 -397 130
-172 40 -235 54 -267 59 -21 4 -41 8 -45 10 -3 2 -33 7 -66 11 -32 3 -62 8
-65 10 -3 1 -36 6 -75 10 -38 3 -92 9 -120 11 -52 5 -403 12 -408 8z"/>
<path d="M6287 6754 c-1 -1 -54 -4 -117 -7 -103 -6 -228 -20 -292 -33 -13 -2
-39 -7 -58 -10 -103 -16 -389 -100 -475 -138 -16 -8 -55 -24 -85 -37 -158 -66
-361 -186 -526 -311 -123 -92 -144 -110 -264 -224 -47 -45 -107 -103 -135
-129 -27 -26 -67 -61 -90 -78 -60 -47 -76 -61 -90 -74 -27 -26 -234 -161 -315
-207 -184 -103 -436 -200 -650 -250 -109 -26 -131 -30 -215 -42 -27 -3 -58 -8
-68 -10 -141 -25 -558 -24 -772 1 -64 8 -164 24 -199 31 -11 3 -34 7 -51 9
-189 28 -613 152 -840 247 -27 11 -59 24 -70 29 -108 44 -395 184 -470 229
-27 16 -59 34 -70 39 -11 5 -74 44 -140 86 l-120 77 -32 -39 c-44 -51 -50 -73
-27 -89 11 -8 24 -17 29 -21 18 -15 245 -153 251 -153 3 0 18 -9 33 -19 40
-29 312 -163 437 -216 60 -25 118 -50 129 -54 138 -61 525 -184 675 -215 14
-3 55 -12 91 -20 36 -8 83 -17 105 -21 21 -4 48 -9 59 -11 194 -33 380 -49
605 -49 208 0 305 7 470 30 90 13 256 50 365 82 434 126 791 339 1160 694 124
119 140 134 220 198 39 31 72 59 75 62 3 3 58 41 123 84 117 77 360 206 447
238 157 56 191 67 241 82 31 8 65 17 75 20 11 2 57 12 104 23 47 10 88 20 93
20 4 1 8 2 10 3 1 0 22 2 47 4 25 2 59 6 75 9 50 10 203 18 335 18 145 -1 237
-7 394 -27 92 -11 118 -15 161 -25 25 -6 60 -12 78 -15 17 -2 79 -16 137 -30
58 -15 112 -28 120 -30 46 -10 281 -89 380 -128 210 -81 432 -189 618 -300 75
-45 141 -84 147 -86 5 -2 14 -8 20 -13 5 -4 45 -33 87 -63 l77 -54 42 56 42
56 -24 18 c-57 45 -253 171 -349 226 -123 70 -243 135 -250 136 -3 0 -50 22
-105 48 -219 103 -520 209 -770 271 -83 20 -221 49 -235 50 -8 0 -33 4 -55 8
-22 5 -65 11 -95 14 -30 4 -71 8 -90 11 -87 12 -404 27 -413 19z"/>
<path d="M6129 6406 c-2 -2 -39 -7 -82 -11 -75 -6 -103 -10 -157 -20 -14 -3
-43 -8 -65 -11 -139 -21 -403 -103 -583 -181 -136 -60 -392 -207 -477 -275 -5
-4 -48 -38 -95 -75 -98 -78 -127 -103 -264 -235 -115 -109 -223 -201 -311
-264 -33 -24 -64 -47 -70 -52 -53 -44 -297 -175 -455 -245 -105 -46 -388 -131
-474 -143 -15 -2 -35 -5 -45 -8 -14 -4 -43 -9 -131 -22 -147 -20 -550 -27
-700 -11 -161 17 -312 41 -435 67 -126 28 -226 53 -290 73 -38 12 -72 22 -75
22 -47 11 -290 96 -385 136 -16 7 -32 13 -35 14 -6 2 -45 18 -113 47 -159 67
-515 259 -662 358 -22 15 -45 30 -52 33 -12 7 -83 -81 -83 -102 0 -6 28 -29
63 -51 34 -22 67 -44 74 -50 7 -5 17 -10 23 -10 5 0 10 -4 10 -10 0 -5 4 -10
9 -10 4 0 47 -22 95 -50 161 -93 492 -256 556 -275 3 -1 21 -8 40 -16 19 -9
89 -35 155 -58 66 -24 129 -47 140 -52 83 -34 350 -105 540 -143 124 -26 148
-30 240 -41 22 -3 51 -7 65 -10 14 -3 57 -8 95 -11 239 -18 456 -18 645 0 623
62 1185 321 1634 755 50 49 109 106 131 126 32 30 146 124 255 208 67 52 265
169 382 225 132 63 351 143 435 158 12 2 34 9 48 14 14 5 25 7 25 5 0 -2 10
-1 23 4 23 9 52 14 135 26 20 3 48 8 62 10 80 14 190 20 385 20 191 0 279 -4
385 -20 14 -2 48 -6 75 -10 28 -3 61 -9 75 -11 14 -3 36 -7 50 -10 14 -2 45
-9 70 -14 25 -6 55 -12 67 -15 60 -11 339 -89 378 -106 11 -4 40 -15 65 -23
53 -17 221 -84 305 -121 155 -69 475 -239 483 -257 2 -5 8 -8 14 -8 5 0 66
-38 134 -85 l124 -84 41 55 c24 31 38 58 33 63 -24 22 -182 126 -285 189 -198
120 -465 252 -679 335 -131 51 -387 134 -468 152 -45 10 -58 13 -97 23 -60 16
-185 41 -262 52 -37 5 -80 12 -95 15 -75 14 -626 33 -639 21z"/>
<path d="M6107 6064 c-2 -2 -25 -6 -53 -9 -119 -12 -156 -18 -249 -35 -152
-29 -391 -99 -493 -146 -29 -13 -55 -24 -58 -24 -3 0 -50 -22 -105 -50 -267
-132 -507 -304 -729 -522 -64 -62 -202 -186 -270 -241 -19 -16 -91 -66 -160
-112 -475 -317 -1037 -459 -1670 -421 -58 3 -118 8 -135 10 -16 2 -59 7 -95
11 -36 4 -74 9 -85 11 -27 5 -146 26 -165 29 -8 1 -31 5 -50 10 -19 4 -42 9
-50 10 -8 1 -22 5 -30 8 -8 3 -28 8 -45 10 -16 3 -55 12 -86 21 -31 9 -65 18
-75 21 -16 3 -108 31 -214 65 -44 13 -224 81 -257 96 -17 8 -34 14 -37 14 -24
0 -346 155 -506 243 -106 59 -168 97 -316 194 -22 14 -24 12 -62 -44 l-40 -59
79 -50 c44 -27 86 -55 94 -61 7 -7 16 -13 19 -13 4 0 25 -12 49 -27 73 -48
375 -203 517 -266 135 -60 477 -186 547 -202 19 -4 97 -27 151 -44 17 -5 32
-8 32 -5 0 3 10 0 21 -7 12 -6 31 -12 43 -14 11 -1 77 -14 146 -28 111 -23
169 -33 235 -42 164 -22 165 -22 305 -31 173 -11 407 -7 545 11 17 2 55 6 85
10 30 3 86 12 125 20 38 8 81 16 95 19 156 27 457 132 620 216 138 71 312 176
318 191 2 5 8 9 13 9 26 0 250 187 405 336 127 123 294 264 312 264 6 0 12 4
14 9 5 12 178 125 272 176 181 98 426 192 601 230 44 10 87 20 95 23 8 2 25 6
36 8 12 1 38 5 58 8 20 3 51 8 69 11 163 26 555 26 742 0 184 -25 276 -42 430
-81 55 -14 107 -27 115 -29 64 -14 375 -124 467 -166 24 -10 45 -19 48 -19 14
0 303 -144 406 -202 113 -65 276 -168 352 -224 35 -26 40 -27 48 -12 5 9 15
23 22 30 28 27 50 70 41 76 -72 51 -237 160 -277 184 -49 29 -67 39 -154 89
-211 120 -555 267 -808 345 -60 19 -125 39 -143 45 -18 6 -45 13 -60 15 -15 3
-45 10 -67 16 -22 5 -49 12 -60 14 -11 2 -31 6 -45 9 -80 17 -232 42 -300 50
-30 3 -73 9 -95 11 -45 6 -523 13 -528 8z"/>
<path d="M6177 5724 c-1 -1 -42 -4 -92 -8 -49 -4 -106 -9 -125 -12 -68 -10
-145 -23 -166 -28 -12 -2 -37 -7 -55 -10 -56 -9 -310 -84 -379 -112 -80 -32
-114 -46 -117 -45 -4 1 -233 -117 -258 -132 -241 -147 -365 -242 -560 -427
-167 -159 -183 -173 -280 -250 -189 -149 -444 -293 -675 -378 -74 -28 -147
-53 -162 -56 -15 -2 -31 -7 -35 -9 -10 -6 -225 -54 -277 -62 -21 -3 -48 -7
-60 -10 -141 -32 -634 -38 -799 -10 -12 2 -44 6 -72 10 -44 4 -117 16 -195 31
-14 2 -40 7 -58 9 -18 3 -42 9 -51 15 -10 5 -21 7 -24 4 -3 -3 -25 0 -48 7
-24 7 -53 14 -63 16 -59 11 -414 120 -481 148 -16 7 -84 34 -150 60 -236 93
-540 251 -756 390 l-95 62 -37 -53 c-41 -59 -45 -72 -20 -81 9 -4 49 -28 88
-53 151 -99 534 -305 625 -335 3 -1 28 -12 55 -24 28 -13 91 -39 140 -58 50
-19 99 -39 110 -43 25 -11 174 -61 195 -65 8 -2 42 -12 75 -24 53 -17 161 -47
205 -56 8 -2 33 -8 55 -13 22 -6 51 -13 65 -16 14 -3 48 -9 75 -15 28 -6 59
-12 70 -14 19 -4 119 -20 200 -32 220 -33 681 -38 825 -10 14 3 50 8 80 11 99
10 365 70 460 104 207 72 376 147 498 222 34 21 65 38 67 38 13 0 157 102 264
186 103 81 122 98 322 290 52 49 165 144 259 217 19 15 140 95 196 130 55 34
273 143 304 152 14 4 30 11 35 15 6 3 33 14 60 24 28 10 59 21 70 26 108 45
412 109 595 126 177 16 504 6 680 -21 46 -7 168 -26 182 -29 73 -15 106 -22
188 -43 52 -13 102 -26 110 -28 15 -4 164 -50 210 -65 138 -45 436 -172 580
-249 47 -24 100 -51 118 -60 17 -8 32 -19 32 -23 0 -4 5 -8 11 -8 7 0 40 -18
75 -40 35 -22 68 -40 74 -40 5 0 10 -4 10 -10 0 -5 7 -10 15 -10 8 0 15 -4 15
-10 0 -5 6 -10 13 -10 8 0 22 -9 32 -20 10 -11 23 -20 29 -20 6 0 23 -11 37
-24 24 -22 62 -46 72 -46 3 0 22 23 42 50 30 40 35 53 25 65 -16 19 -186 135
-198 135 -6 0 -12 4 -14 8 -6 14 -130 87 -288 169 -58 31 -109 59 -115 63 -5
5 -14 9 -20 11 -5 1 -41 17 -80 34 -203 94 -592 233 -724 260 -9 2 -46 10 -82
19 -115 26 -260 53 -334 62 -27 3 -61 7 -75 9 -91 14 -511 29 -523 19z"/>
<path d="M6207 5384 c-1 -1 -47 -5 -102 -8 -56 -4 -112 -8 -125 -11 -113 -17
-169 -26 -195 -30 -16 -2 -43 -7 -60 -11 -16 -3 -34 -7 -40 -8 -5 -1 -14 -4
-20 -7 -5 -4 -28 -10 -50 -14 -44 -9 -43 -9 -65 -18 -8 -3 -42 -13 -75 -23
-73 -21 -66 -19 -90 -29 -406 -161 -684 -340 -995 -642 -134 -130 -176 -167
-245 -218 -22 -16 -42 -32 -45 -35 -3 -3 -41 -31 -85 -62 -140 -97 -281 -175
-465 -256 -147 -65 -453 -148 -610 -167 -30 -3 -62 -8 -70 -10 -85 -24 -573
-25 -750 -1 -14 2 -50 7 -80 10 -101 14 -324 57 -420 82 -52 14 -104 27 -116
29 -27 6 -190 56 -274 85 -334 113 -750 315 -1024 498 l-68 46 -25 -29 c-26
-32 -57 -85 -51 -89 117 -92 483 -295 713 -396 55 -24 104 -47 110 -52 5 -4
15 -8 22 -8 7 0 32 -8 56 -19 217 -95 600 -208 872 -256 93 -17 146 -25 180
-30 54 -6 127 -15 183 -21 127 -15 546 -8 682 11 14 2 43 5 65 8 310 40 745
191 979 341 31 20 58 36 60 36 11 0 182 123 266 191 107 87 123 101 247 219
115 110 157 147 218 195 28 22 52 43 53 48 2 4 8 7 13 7 5 0 35 19 66 43 143
107 384 236 569 302 89 33 243 80 295 91 93 19 181 35 219 40 25 3 56 7 70 9
160 22 498 22 660 1 19 -3 55 -8 80 -11 127 -17 307 -53 450 -91 100 -27 374
-116 425 -139 17 -7 80 -34 140 -60 138 -59 340 -161 469 -237 113 -67 271
-171 302 -200 l22 -20 28 37 c69 89 72 72 -25 140 -209 148 -530 323 -776 425
-123 50 -308 120 -330 124 -5 1 -15 5 -21 8 -6 4 -21 9 -35 12 -13 3 -64 17
-114 31 -49 15 -98 29 -108 31 -10 2 -28 6 -39 10 -11 3 -30 8 -41 10 -12 2
-44 8 -72 14 -27 6 -66 13 -85 16 -19 4 -39 7 -45 8 -5 2 -32 6 -60 10 -27 4
-61 10 -75 12 -27 5 -84 10 -190 19 -66 6 -348 13 -353 9z"/>
<path d="M6277 5044 c-1 -1 -58 -5 -127 -9 -151 -8 -190 -11 -232 -19 -18 -3
-49 -8 -68 -11 -75 -12 -192 -37 -255 -55 -36 -10 -66 -19 -68 -19 -1 0 -9 -2
-17 -5 -8 -2 -46 -14 -85 -26 -38 -13 -74 -26 -80 -31 -5 -5 -15 -9 -22 -9
-18 0 -119 -45 -238 -106 -141 -72 -166 -87 -287 -169 -162 -112 -280 -211
-463 -389 -83 -80 -297 -256 -313 -256 -6 0 -12 -4 -14 -8 -8 -21 -296 -192
-323 -192 -7 0 -15 -4 -17 -8 -6 -15 -214 -99 -353 -142 -66 -21 -252 -67
-300 -74 -66 -10 -121 -19 -136 -21 -104 -19 -582 -28 -694 -12 -27 4 -72 9
-100 12 -27 3 -59 7 -70 9 -11 2 -42 7 -69 10 -27 4 -52 9 -55 10 -3 2 -28 7
-55 10 -27 4 -79 14 -115 22 -36 9 -75 18 -86 20 -11 2 -69 18 -130 34 -60 17
-117 33 -125 35 -80 20 -391 137 -549 207 -189 83 -550 277 -559 300 -2 4 -8
8 -13 8 -6 0 -37 18 -69 40 -32 22 -61 40 -63 40 -13 0 -80 -112 -71 -118 5
-4 30 -21 54 -38 203 -143 648 -367 940 -474 63 -23 124 -45 135 -50 79 -32
450 -133 535 -146 19 -3 51 -9 70 -14 19 -5 51 -11 70 -14 19 -3 46 -8 60 -10
42 -8 181 -26 260 -33 162 -16 622 -8 722 13 13 2 41 7 63 9 215 28 504 115
740 226 131 61 411 226 435 258 3 3 21 17 40 30 58 41 199 164 305 266 178
173 405 347 560 430 28 14 68 36 90 49 107 59 421 178 528 200 12 3 54 12 93
20 39 9 88 18 110 21 21 4 50 8 64 11 117 20 411 31 560 20 72 -5 199 -17 220
-21 9 -2 41 -6 71 -10 30 -3 61 -8 69 -10 8 -2 31 -7 50 -10 19 -3 42 -8 50
-10 8 -2 31 -7 50 -10 19 -3 71 -15 115 -27 44 -11 87 -22 95 -23 8 -2 16 -4
18 -5 1 -2 5 -3 10 -4 20 -5 129 -38 142 -43 8 -3 20 -7 25 -9 23 -5 254 -93
295 -111 25 -12 79 -35 120 -53 93 -41 299 -147 386 -200 37 -22 68 -40 70
-40 2 0 61 -38 131 -86 69 -47 129 -86 133 -87 10 -2 80 88 80 102 0 20 -266
194 -445 291 -288 157 -573 275 -877 364 -70 20 -135 39 -145 41 -10 2 -58 12
-108 24 -49 11 -106 22 -125 26 -19 3 -46 7 -60 10 -26 4 -61 9 -145 21 -27 3
-57 8 -66 9 -28 6 -368 22 -372 19z"/>
<path d="M6098 4695 c-2 -1 -34 -5 -73 -9 -116 -10 -156 -16 -260 -37 -55 -12
-109 -23 -120 -25 -47 -9 -255 -74 -314 -98 -36 -14 -70 -26 -78 -26 -7 0 -13
-4 -13 -10 0 -5 -7 -10 -15 -10 -18 0 -192 -86 -280 -138 -133 -78 -318 -210
-410 -293 -16 -15 -41 -37 -55 -49 -14 -12 -68 -63 -120 -113 -159 -153 -254
-230 -410 -335 -97 -64 -300 -175 -395 -214 -61 -26 -178 -70 -195 -73 -8 -2
-27 -8 -43 -14 -24 -9 -151 -44 -212 -57 -103 -24 -278 -49 -410 -60 -59 -4
-381 -4 -445 0 -66 5 -171 16 -200 21 -14 2 -45 7 -70 10 -50 7 -82 12 -120
20 -24 5 -42 8 -107 20 -16 2 -43 9 -62 14 -18 6 -36 10 -40 9 -3 -1 -13 1
-21 4 -8 3 -62 18 -120 33 -257 66 -560 180 -845 320 -158 77 -439 237 -511
290 -17 13 -35 20 -40 17 -6 -4 -25 -29 -44 -56 l-33 -49 24 -17 c115 -87 470
-284 684 -380 28 -13 73 -33 100 -45 84 -38 365 -140 465 -170 52 -15 104 -31
115 -35 19 -7 176 -46 223 -55 13 -2 31 -6 40 -9 9 -3 31 -8 47 -11 17 -2 57
-10 90 -16 33 -6 69 -13 80 -14 11 -2 43 -6 70 -10 28 -4 59 -9 70 -11 10 -2
53 -6 95 -9 41 -4 89 -8 105 -11 37 -6 405 -6 460 0 22 2 73 7 112 11 40 3 81
8 92 10 10 2 41 7 68 11 26 3 57 9 68 11 11 3 49 11 85 18 36 8 90 21 120 30
30 9 60 17 65 19 79 22 116 34 212 71 115 45 265 117 361 174 29 17 57 31 62
31 6 0 10 5 10 10 0 6 4 10 10 10 5 0 29 14 52 30 24 17 54 38 68 47 90 60
228 175 341 283 140 134 177 168 224 205 28 22 52 42 55 45 31 31 157 119 290
202 132 82 384 192 558 243 255 74 448 99 757 100 168 0 287 -6 365 -19 36 -6
112 -17 135 -20 25 -3 103 -17 130 -23 11 -3 29 -6 40 -8 11 -2 74 -17 140
-35 66 -17 127 -32 135 -35 46 -11 249 -82 346 -121 62 -24 117 -44 123 -44 6
0 11 -4 11 -9 0 -5 12 -12 28 -16 68 -17 560 -282 570 -307 2 -4 8 -8 13 -8 9
0 128 -79 160 -107 8 -7 18 -13 21 -13 9 0 78 98 78 110 0 12 -255 181 -390
258 -90 51 -281 147 -412 206 -280 126 -641 234 -968 290 -120 20 -166 27
-220 32 -54 5 -517 13 -522 9z"/>
<path d="M6118 4355 c-2 -1 -37 -5 -78 -9 -41 -3 -86 -8 -100 -11 -14 -3 -44
-7 -65 -9 -75 -8 -123 -18 -305 -61 -40 -10 -179 -54 -213 -68 -20 -9 -39 -17
-42 -17 -26 -5 -169 -69 -265 -118 -145 -75 -409 -249 -471 -311 -9 -9 -34
-30 -55 -48 -45 -36 -96 -83 -209 -192 -44 -42 -107 -99 -140 -126 -33 -28
-62 -52 -65 -55 -21 -21 -183 -133 -265 -182 -66 -39 -277 -148 -288 -148 -4
0 -26 -9 -50 -19 -43 -20 -150 -60 -177 -67 -8 -2 -64 -17 -125 -34 -60 -17
-123 -33 -140 -36 -16 -2 -37 -7 -45 -9 -18 -5 -58 -12 -130 -21 -30 -4 -66
-8 -80 -10 -72 -10 -220 -18 -335 -17 -113 0 -330 9 -330 13 0 1 -11 3 -25 4
-41 4 -143 18 -164 22 -11 2 -38 6 -61 9 -58 9 -235 45 -270 55 -16 5 -41 11
-55 14 -109 21 -364 104 -565 183 -290 115 -565 255 -810 414 l-89 58 -38 -57
c-36 -54 -37 -58 -20 -73 14 -13 71 -49 322 -199 8 -5 72 -38 142 -74 230
-119 512 -236 758 -314 82 -26 110 -34 165 -48 6 -1 37 -10 70 -19 33 -9 71
-18 85 -21 14 -3 33 -7 42 -10 10 -3 30 -8 45 -10 16 -3 46 -10 68 -15 22 -5
54 -11 70 -13 30 -4 91 -15 127 -21 11 -3 46 -7 77 -10 31 -4 67 -8 81 -11
104 -17 439 -23 595 -11 148 12 202 19 390 52 46 9 157 35 185 45 14 5 59 18
100 31 41 12 80 24 85 28 6 3 12 6 15 6 5 0 38 13 115 44 62 24 308 151 326
167 8 8 19 14 23 14 4 0 44 25 88 55 44 30 83 55 88 55 5 0 10 3 12 8 2 4 35
32 73 62 82 64 131 107 281 249 106 101 163 151 243 214 20 15 43 33 51 40 9
7 36 25 60 42 25 16 47 32 50 35 19 19 222 132 316 176 148 69 151 70 264 108
131 44 244 72 395 97 33 5 71 12 83 14 166 29 632 23 792 -10 14 -3 43 -7 65
-10 34 -3 91 -14 215 -41 29 -6 180 -45 260 -67 345 -96 842 -333 1157 -553
104 -73 99 -72 151 -1 l31 44 -32 24 c-194 144 -559 350 -790 445 -34 14 -76
31 -92 39 -31 14 -191 75 -210 79 -5 2 -17 6 -25 9 -57 25 -423 124 -485 132
-11 2 -58 10 -105 19 -116 21 -177 30 -300 42 -55 5 -447 13 -452 9z"/>
<path d="M6177 4014 c-1 -1 -49 -4 -107 -8 -58 -3 -114 -8 -125 -10 -11 -2
-42 -7 -70 -10 -27 -4 -57 -9 -65 -11 -8 -2 -31 -6 -50 -9 -20 -3 -74 -14
-120 -26 -47 -11 -94 -23 -105 -25 -46 -11 -216 -70 -295 -102 -305 -126 -604
-327 -870 -584 -207 -199 -374 -331 -548 -431 -172 -99 -435 -215 -552 -243
-8 -1 -53 -13 -100 -25 -103 -27 -116 -29 -159 -35 -18 -3 -36 -7 -40 -9 -3
-2 -38 -7 -76 -11 -39 -4 -73 -9 -77 -11 -38 -23 -599 -23 -728 0 -14 3 -45 7
-70 9 -53 6 -89 12 -230 39 -116 22 -109 20 -200 43 -36 9 -74 18 -85 20 -11
3 -51 14 -90 25 -38 12 -77 23 -85 25 -26 6 -254 85 -275 95 -11 5 -67 28
-125 51 -57 23 -111 45 -120 50 -8 4 -80 40 -160 78 -154 74 -273 137 -320
171 -15 11 -31 20 -34 20 -3 0 -47 27 -97 60 -50 33 -94 60 -98 60 -7 0 -40
-44 -74 -97 -19 -31 444 -297 758 -435 347 -152 806 -287 1130 -332 22 -4 51
-8 65 -11 180 -33 654 -39 860 -10 14 1 48 6 75 10 56 8 65 9 150 25 33 6 74
15 91 21 17 5 41 12 53 14 11 3 31 7 43 10 91 20 331 111 464 177 100 50 252
135 264 148 3 3 28 21 57 39 46 29 103 70 140 101 6 5 38 31 70 57 55 45 95
81 223 203 116 111 244 218 335 281 27 19 55 39 62 46 7 6 22 15 33 18 11 3
20 11 20 16 0 5 4 9 10 9 5 0 38 17 72 38 190 115 520 243 718 277 19 3 53 10
75 15 22 5 60 12 85 15 25 3 61 8 80 11 156 21 515 21 665 -1 17 -2 49 -6 73
-9 103 -14 134 -19 242 -42 462 -98 937 -289 1326 -533 53 -34 98 -61 100 -61
3 0 10 -5 17 -10 7 -6 39 -30 72 -54 l59 -44 19 21 c10 12 26 34 35 50 9 15
20 27 24 27 25 0 -5 26 -109 96 -65 44 -119 82 -121 87 -2 4 -7 7 -12 7 -4 0
-52 26 -107 58 -102 61 -367 196 -440 225 -23 9 -61 25 -85 36 -175 79 -559
198 -763 236 -85 16 -205 36 -240 41 -22 2 -53 6 -70 8 -88 12 -458 28 -468
20z"/>
<path d="M6298 3676 c-1 -2 -73 -6 -158 -9 -85 -4 -166 -8 -180 -11 -14 -2
-47 -7 -75 -10 -76 -9 -112 -16 -210 -38 -49 -11 -100 -22 -113 -24 -35 -7
-296 -95 -307 -104 -5 -4 -21 -11 -35 -15 -38 -11 -245 -116 -332 -168 -76
-45 -252 -167 -294 -203 -12 -11 -44 -37 -70 -59 -46 -38 -107 -95 -253 -233
-36 -35 -100 -90 -141 -123 -41 -33 -85 -68 -96 -77 -84 -70 -328 -212 -489
-284 -133 -59 -401 -143 -525 -164 -14 -3 -50 -9 -80 -14 -162 -28 -258 -35
-490 -34 -270 0 -373 9 -630 54 -131 23 -263 55 -431 104 -438 127 -838 311
-1242 570 -32 21 -60 36 -62 34 -2 -1 -19 -27 -39 -55 l-36 -53 42 -30 c36
-27 165 -106 281 -174 77 -45 392 -199 502 -245 164 -68 419 -159 520 -185 6
-1 30 -8 55 -15 25 -7 52 -15 60 -17 8 -2 42 -11 75 -19 33 -9 71 -17 85 -19
14 -3 32 -7 40 -10 8 -3 33 -8 55 -12 43 -7 63 -10 110 -19 217 -39 347 -50
615 -50 195 0 311 6 410 20 19 3 53 7 75 10 21 3 55 9 75 15 19 5 55 12 80 15
24 4 48 9 52 12 5 2 19 6 32 9 47 8 201 55 295 90 181 67 456 211 581 304 146
110 182 137 234 183 33 29 101 91 150 138 156 149 178 168 292 255 333 251
711 417 1094 478 19 3 44 8 56 10 138 28 677 28 818 0 12 -2 39 -6 61 -9 57
-7 192 -33 240 -46 22 -6 51 -13 65 -16 30 -5 194 -53 300 -87 231 -74 550
-216 775 -345 132 -76 319 -197 336 -217 6 -8 19 -14 28 -14 20 0 97 100 84
109 -78 54 -109 76 -113 80 -3 3 -14 11 -25 18 -11 7 -49 30 -85 53 -90 57
-89 56 -148 90 -174 99 -426 220 -600 286 -140 54 -384 133 -462 149 -8 2 -15
4 -15 5 0 1 -11 4 -25 6 -14 3 -43 9 -65 15 -22 6 -51 13 -65 16 -14 2 -59 10
-100 18 -85 16 -124 22 -195 30 -27 4 -63 8 -80 11 -16 2 -86 7 -155 10 -69 3
-130 7 -137 9 -6 2 -13 2 -15 1z"/>
<path d="M5999 3319 c-25 -4 -70 -9 -100 -13 -303 -32 -686 -158 -963 -318
-70 -40 -229 -141 -250 -159 -6 -5 -38 -30 -71 -55 -90 -69 -151 -123 -345
-307 -226 -215 -512 -402 -780 -510 -47 -19 -94 -38 -105 -42 -40 -17 -307
-92 -351 -99 -166 -28 -218 -36 -274 -41 -36 -4 -85 -8 -110 -11 -54 -5 -370
-5 -420 0 -19 2 -70 7 -112 10 -43 4 -88 9 -100 11 -13 2 -57 9 -98 15 -61 9
-218 39 -291 55 -288 62 -686 204 -988 353 -186 91 -429 229 -478 272 -7 5
-15 10 -19 10 -3 0 -19 9 -35 20 l-28 21 -30 -43 c-17 -24 -36 -49 -42 -56 -6
-7 -9 -15 -8 -16 13 -10 187 -124 199 -130 8 -4 31 -17 51 -29 311 -189 792
-393 1164 -493 106 -28 290 -71 340 -79 17 -3 41 -7 55 -10 42 -8 83 -14 130
-20 25 -3 59 -7 75 -10 200 -31 529 -35 760 -11 68 8 141 17 155 21 8 2 35 7
60 10 25 3 63 11 85 17 22 5 51 12 65 15 138 24 430 132 610 226 139 73 406
247 440 286 3 3 32 28 65 56 33 27 92 79 130 116 39 37 94 90 124 119 30 28
75 68 100 88 25 20 48 39 51 42 43 47 297 213 425 278 134 68 306 140 370 156
6 2 17 6 25 9 21 9 238 64 280 71 84 14 180 27 245 33 147 14 586 6 655 -12 8
-2 37 -6 65 -10 72 -9 235 -42 350 -71 452 -113 938 -332 1325 -597 71 -49 98
-63 108 -55 15 13 74 99 70 103 -2 1 -52 36 -113 77 -271 185 -586 347 -900
465 -66 25 -128 47 -137 48 -10 2 -23 7 -28 10 -34 21 -406 118 -535 140 -16
3 -39 7 -50 9 -11 2 -41 7 -67 10 -121 15 -144 19 -168 23 -45 8 -534 10 -581
2z"/>
</g>
</svg>
